<svg width="34" height="13" viewBox="0 0 34 13" fill="none" xmlns="http://www.w3.org/2000/svg">
<path opacity="0.85" d="M8.10635 0.749999V9.15H11.0763V12H0.681348V9.15H4.29635V4.035L1.04135 4.605V1.65L5.30135 0.749999H8.10635ZM17.7044 0.48C19.6744 0.48 21.1694 0.775 22.1894 1.365C23.2194 1.945 23.7344 2.755 23.7344 3.795C23.7344 4.705 23.3044 5.38 22.4444 5.82C22.1544 5.97 21.8294 6.09 21.4694 6.18C21.9094 6.26 22.3044 6.39 22.6544 6.57C23.5644 7.04 24.0194 7.8 24.0194 8.85C24.0194 9.97 23.4844 10.82 22.4144 11.4C21.3444 11.98 19.7744 12.27 17.7044 12.27C15.6344 12.27 14.0644 11.98 12.9944 11.4C11.9244 10.82 11.3894 9.97 11.3894 8.85C11.3894 7.8 11.8494 7.04 12.7694 6.57C13.1094 6.39 13.4994 6.255 13.9394 6.165C13.5794 6.085 13.2594 5.97 12.9794 5.82C12.1094 5.38 11.6744 4.705 11.6744 3.795C11.6744 2.755 12.1844 1.945 13.2044 1.365C14.2344 0.775 15.7344 0.48 17.7044 0.48ZM17.7044 5.055C18.1844 5.055 18.5844 5.025 18.9044 4.965C19.2344 4.895 19.4794 4.8 19.6394 4.68C19.8094 4.55 19.8944 4.395 19.8944 4.215C19.8944 3.945 19.7094 3.74 19.3394 3.6C18.9694 3.45 18.4244 3.375 17.7044 3.375C16.9844 3.375 16.4394 3.45 16.0694 3.6C15.6994 3.74 15.5144 3.945 15.5144 4.215C15.5144 4.395 15.5944 4.55 15.7544 4.68C15.9244 4.8 16.1694 4.895 16.4894 4.965C16.8194 5.025 17.2244 5.055 17.7044 5.055ZM17.7044 9.375C18.4944 9.375 19.0894 9.3 19.4894 9.15C19.8994 8.99 20.1044 8.765 20.1044 8.475C20.1044 8.185 19.8994 7.965 19.4894 7.815C19.0894 7.665 18.4944 7.59 17.7044 7.59C16.9144 7.59 16.3144 7.665 15.9044 7.815C15.5044 7.965 15.3044 8.185 15.3044 8.475C15.3044 8.765 15.5044 8.99 15.9044 9.15C16.3144 9.3 16.9144 9.375 17.7044 9.375ZM27.6169 10.89V8.04H24.7669V5.34H27.6169V2.49H30.3169V5.34H33.1669V8.04H30.3169V10.89H27.6169Z" fill="white"/>
</svg>
