<svg width="18" height="16" viewBox="0 0 18 16" fill="none" xmlns="http://www.w3.org/2000/svg">
<path opacity="0.85" d="M16.6676 0.00149037C16.435 0.0121977 16.2159 0.0791187 16.0211 0.15407H16.0184C15.821 0.231699 14.8824 0.622518 13.4569 1.2141C12.0314 1.80836 10.1812 2.57929 8.34455 3.34487C4.67667 4.87335 1.07099 6.37773 1.07099 6.37773L1.11427 6.36167C1.11427 6.36167 0.86542 6.44198 0.605747 6.61865C0.473205 6.70431 0.327139 6.82209 0.200007 7.00679C0.0728755 7.19149 -0.0299122 7.47524 0.0079572 7.76701C0.0701708 8.26223 0.394763 8.55936 0.627386 8.72265C0.862715 8.88861 1.08722 8.96624 1.08722 8.96624H1.09263L4.4738 10.0932C4.62527 10.575 5.50438 13.4339 5.71536 14.0924C5.83979 14.4859 5.96151 14.7322 6.11299 14.9195C6.18602 15.0159 6.27258 15.0962 6.37536 15.1605C6.41594 15.1846 6.45922 15.2033 6.5025 15.2193C6.51602 15.2274 6.52955 15.2301 6.54577 15.2327L6.51061 15.2247C6.52143 15.2274 6.52955 15.2354 6.53766 15.2381C6.56471 15.2461 6.58364 15.2488 6.61881 15.2541C7.15438 15.4148 7.58447 15.0855 7.58447 15.0855L7.60881 15.0668L9.60505 13.2679L12.9511 15.8083L13.0268 15.8404C13.7247 16.1429 14.4306 15.9742 14.8039 15.6771C15.1799 15.3773 15.326 14.9945 15.326 14.9945L15.3503 14.9329L17.9362 1.82442C18.0093 1.50052 18.0282 1.19804 17.9471 0.903587C17.8659 0.609134 17.6576 0.333419 17.4061 0.186192C17.1518 0.0362892 16.9003 -0.00921701 16.6676 0.00149037ZM16.5973 1.40683C16.5946 1.44966 16.6027 1.44431 16.5838 1.52729V1.53532L14.0222 14.5073C14.0114 14.526 13.9924 14.5662 13.9411 14.6064C13.887 14.6492 13.8437 14.676 13.6192 14.5876L9.52661 11.4825L7.0543 13.7123L7.57365 10.4305C7.57365 10.4305 13.9843 4.51733 14.2602 4.26303C14.5361 4.00873 14.4442 3.95519 14.4442 3.95519C14.4631 3.64468 14.0276 3.86418 14.0276 3.86418L5.59634 9.03316L5.59364 9.01978L1.55247 7.67333V7.67065C1.54977 7.67065 1.54436 7.66797 1.54165 7.66797C1.54436 7.66797 1.56329 7.65994 1.56329 7.65994L1.58493 7.64923L1.60657 7.6412C1.60657 7.6412 5.21495 6.13682 8.88284 4.60834C10.7195 3.84276 12.5697 3.07183 13.9925 2.47757C15.4152 1.88599 16.4675 1.45234 16.527 1.42825C16.5838 1.40683 16.5567 1.40683 16.5973 1.40683Z" fill="white"/>
</svg>
