<svg width="16" height="16" viewBox="0 0 16 16" fill="none" xmlns="http://www.w3.org/2000/svg">
<path opacity="0.85" d="M12.9169 11.4157H11.7545C11.3143 11.4157 11.1783 11.0657 10.3877 10.2644C9.69891 9.59755 9.39429 9.50792 9.22517 9.50792C8.98776 9.50792 8.92001 9.57567 8.92001 9.90324V10.9532C8.92001 11.2359 8.82985 11.405 8.08456 11.405C6.58118 11.3042 5.28905 10.4842 4.53896 9.28919L4.52776 9.27052C3.6571 8.18912 3.0153 6.8858 2.69788 5.46031L2.68614 5.39789C2.68614 5.22877 2.75389 5.07032 3.08146 5.07032H4.24394C4.53736 5.07032 4.65046 5.20583 4.7641 5.52166C5.3392 7.18189 6.29949 8.63832 6.69481 8.63832C6.84152 8.63832 6.90927 8.57057 6.90927 8.19819V6.48088C6.86393 5.69024 6.4462 5.62302 6.4462 5.3408C6.451 5.18982 6.57477 5.06925 6.72628 5.06925C6.73109 5.06925 6.73535 5.06925 6.74016 5.06979H8.56897C8.81758 5.06979 8.90774 5.2053 8.90774 5.49872V7.81408C8.90774 8.06215 9.02084 8.15285 9.08859 8.15285C9.23531 8.15285 9.36014 8.06215 9.63062 7.79167C10.1929 7.10507 10.6736 6.31976 11.0401 5.47311L11.0647 5.40909C11.142 5.21543 11.3277 5.08099 11.5448 5.08099C11.5549 5.08099 11.5645 5.08152 11.5747 5.08206H11.5731H12.7356C13.0855 5.08206 13.165 5.26185 13.0855 5.51099C12.6193 6.53796 12.0954 7.42036 11.4882 8.23767L11.516 8.19819C11.3922 8.40145 11.3469 8.49161 11.516 8.71835C11.6398 8.88747 12.0468 9.23744 12.3178 9.5538C12.7099 9.94165 13.0386 10.393 13.2867 10.8913L13.3 10.9206C13.4131 11.2471 13.2434 11.4168 12.9159 11.4168L12.9169 11.4157ZM10.4559 0H5.54406C1.06112 0 0 1.06112 0 5.54406V10.4559C0 14.9389 1.06112 16 5.54406 16H10.4559C14.9389 16 16 14.9389 16 10.4559V5.54406C16 1.06112 14.9271 0 10.4559 0Z" fill="white"/>
</svg>
